<svg xmlns="http://www.w3.org/2000/svg" width="1120" height="980" viewBox="0 0 1120 980">
  <rect width="1120" height="980" fill="none"/>
  <defs>
    <radialGradient id="skin" cx="45%" cy="30%" r="72%">
      <stop offset="0" stop-color="#f6f6f1"/>
      <stop offset=".32" stop-color="#bfc4c2"/>
      <stop offset=".7" stop-color="#222527"/>
      <stop offset="1" stop-color="#020303"/>
    </radialGradient>
    <linearGradient id="suit" x1="0" x2="1" y1="0" y2="1">
      <stop offset="0" stop-color="#f8f8f3"/>
      <stop offset=".42" stop-color="#43484a"/>
      <stop offset="1" stop-color="#020303"/>
    </linearGradient>
    <filter id="grain">
      <feTurbulence type="fractalNoise" baseFrequency=".9" numOctaves="2" stitchTiles="stitch"/>
      <feColorMatrix type="saturate" values="0"/>
      <feComponentTransfer>
        <feFuncA type="table" tableValues="0 .22"/>
      </feComponentTransfer>
      <feBlend mode="multiply" in2="SourceGraphic"/>
    </filter>
  </defs>
  <g filter="url(#grain)">
    <path d="M1120 274c-140-86-268-118-382-96-98 20-174 82-226 186-70 140-176 225-318 254-68 14-132 18-194 12v350h1120z" fill="url(#suit)" opacity=".95"/>
    <path d="M678 140c72-18 146 4 196 58 55 58 70 146 42 222-32 88-112 142-202 134-86-8-151-72-164-154-16-104 30-232 128-260z" fill="url(#skin)"/>
    <path d="M585 328c88-34 199-30 318 14l-18 78c-95-38-186-41-272-8z" fill="#050607" opacity=".92"/>
    <path d="M614 334c43-18 91-18 144 0l-12 58c-46-15-88-14-126 3zM786 334c46-11 86-5 122 18l-16 56c-34-22-72-30-114-20z" fill="#151719"/>
    <path d="M108 590c154-88 300-152 438-192 90-26 177-40 262-42l36 102c-178 10-348 58-510 144-86 46-162 98-226 156z" fill="url(#skin)" opacity=".92"/>
    <path d="M0 716c168-88 340-132 516-132 128 0 253 28 374 84l-70 312H0z" fill="#050607" opacity=".9"/>
    <path d="M492 724c92-74 204-118 336-132l60 388H342z" fill="url(#suit)" opacity=".82"/>
  </g>
  <g fill="none" stroke="#f3f3ed" stroke-width="5" opacity=".72">
    <path d="M696 215c52-22 106-16 162 18"/>
    <path d="M612 532c88 42 176 56 264 42"/>
  </g>
</svg>
