<svg xmlns="http://www.w3.org/2000/svg" width="900" height="1100" viewBox="0 0 900 1100">
  <rect width="900" height="1100" fill="#ffffff"/>
  <path d="M0 0h900v1100H0z" fill="#fff"/>
  <g fill="none" stroke="#d9dfe2" stroke-width="2" opacity=".75">
    <path d="M110 134h680M110 968h680M130 110v870M770 110v870"/>
    <path d="M170 760c94-125 184-185 280-184 106 2 200 66 282 192" stroke="#b8c0c4"/>
  </g>
  <circle cx="450" cy="344" r="146" fill="#f4f5f3" stroke="#d9dfe2" stroke-width="3"/>
  <path d="M260 792c40-144 113-218 190-218s150 74 190 218" fill="#f2f4f1" stroke="#d9dfe2" stroke-width="3"/>
  <path d="M338 345c34 54 78 82 132 82 48 0 89-24 123-71" fill="none" stroke="#c6ced2" stroke-width="12" stroke-linecap="round"/>
  <text x="450" y="906" text-anchor="middle" font-family="Arial, sans-serif" font-size="34" font-weight="700" fill="#111820">LI HUIQUAN</text>
  <text x="450" y="954" text-anchor="middle" font-family="Arial, sans-serif" font-size="20" letter-spacing="5" fill="#7b858a">VISUAL DESIGNER / PRODUCT RENDERING ARTIST</text>
</svg>
